<?xml version="1.0" encoding="UTF-8" standalone="no"?>
<!-- Created with Inkscape (http://www.inkscape.org/) -->

<svg
   xmlns:dc="http://purl.org/dc/elements/1.1/"
   xmlns:cc="http://creativecommons.org/ns#"
   xmlns:rdf="http://www.w3.org/1999/02/22-rdf-syntax-ns#"
   xmlns:svg="http://www.w3.org/2000/svg"
   xmlns="http://www.w3.org/2000/svg"
   xmlns:sodipodi="http://sodipodi.sourceforge.net/DTD/sodipodi-0.dtd"
   xmlns:inkscape="http://www.inkscape.org/namespaces/inkscape"
   width="1280"
   height="720"
   viewBox="0 0 1280 720.00001"
   id="svg12070"
   version="1.1"
   inkscape:version="0.91 r13725"
   sodipodi:docname="green-background.svg">
  <defs
     id="defs12072" />
  <sodipodi:namedview
     id="base"
     pagecolor="#ffffff"
     bordercolor="#666666"
     borderopacity="1.0"
     inkscape:pageopacity="0.0"
     inkscape:pageshadow="2"
     inkscape:zoom="0.60647144"
     inkscape:cx="446.03629"
     inkscape:cy="523.3107"
     inkscape:document-units="px"
     inkscape:current-layer="layer3"
     showgrid="false"
     units="px"
     inkscape:window-width="1920"
     inkscape:window-height="1014"
     inkscape:window-x="0"
     inkscape:window-y="27"
     inkscape:window-maximized="1" />
  <metadata
     id="metadata12075">
    <rdf:RDF>
      <cc:Work
         rdf:about="">
        <dc:format>image/svg+xml</dc:format>
        <dc:type
           rdf:resource="http://purl.org/dc/dcmitype/StillImage" />
        <dc:title></dc:title>
      </cc:Work>
    </rdf:RDF>
  </metadata>
  <g
     inkscape:groupmode="layer"
     id="layer3"
     inkscape:label="alt color 1">
    <rect
       style="color:#000000;display:inline;overflow:visible;visibility:visible;opacity:1;fill:#31661d;fill-opacity:1;fill-rule:nonzero;stroke:none;stroke-width:4;stroke-linecap:butt;stroke-linejoin:miter;stroke-miterlimit:4;stroke-dasharray:none;stroke-dashoffset:0;stroke-opacity:1;marker:none;enable-background:accumulate"
       id="rect12618-2-7"
       width="1280"
       height="720"
       x="0"
       y="-9.9999997e-06" />
    <path
       inkscape:connector-curvature="0"
       style="color:#000000;display:inline;overflow:visible;visibility:visible;opacity:1;fill:#3acdc0;fill-opacity:1;fill-rule:nonzero;stroke:none;stroke-width:5;stroke-linecap:butt;stroke-linejoin:miter;stroke-miterlimit:4;stroke-dasharray:none;stroke-dashoffset:0;stroke-opacity:1;marker:none;enable-background:accumulate"
       d="m 300.93463,-274.80897 a 6.5882966,6.5882966 0 0 0 -8.98805,-2.45483 6.5882966,6.5882966 0 0 0 -3.17013,7.11753 l -23.79318,9.56703 a 6.5882966,6.5882966 0 0 0 -0.0451,-0.0888 6.5882966,6.5882966 0 0 0 -3.81461,-3.03582 l 9.0594,-26.1103 a 6.5882966,6.5882966 0 0 0 5.20751,-0.56981 6.5882966,6.5882966 0 0 0 2.45483,-8.98805 6.5882966,6.5882966 0 0 0 -8.98805,-2.45484 6.5882966,6.5882966 0 0 0 -2.45483,8.98806 6.5882966,6.5882966 0 0 0 2.96073,2.70639 l -9.10246,26.23169 a 6.5882966,6.5882966 0 0 0 -4.20234,0.72295 l -15.16791,-27.52498 a 6.5882966,6.5882966 0 0 0 0.10863,-0.0555 6.5882966,6.5882966 0 0 0 2.45484,-8.98806 6.5882966,6.5882966 0 0 0 -8.98805,-2.45483 6.5882966,6.5882966 0 0 0 -2.45484,8.98806 6.5882966,6.5882966 0 0 0 8.07846,2.87734 l 15.22768,27.63314 a 6.5882966,6.5882966 0 0 0 -1.82182,8.56737 6.5882966,6.5882966 0 0 0 0.64108,0.92901 l -26.92136,25.89677 a 10.980494,10.980494 0 0 0 -12.72185,-1.33162 10.980494,10.980494 0 0 0 -4.09138,14.98009 10.980494,10.980494 0 0 0 7.91358,5.40351 l -2.9951,44.41167 a 17.590752,17.590752 0 0 0 -8.58278,2.30526 17.590752,17.590752 0 0 0 -3.36904,2.5251 l -28.57527,-33.29271 a 10.980494,10.980494 0 0 0 2.04096,-13.45183 10.980494,10.980494 0 0 0 -14.98009,-4.09139 10.980494,10.980494 0 0 0 -4.09139,14.98009 10.980494,10.980494 0 0 0 14.98009,4.09139 10.980494,10.980494 0 0 0 1.38806,-0.94957 l 28.60974,33.3323 a 17.590752,17.590752 0 0 0 -4.85922,12.13693 l -43.10457,-0.98432 a 10.980494,10.980494 0 0 0 -1.43088,-5.0685 10.980494,10.980494 0 0 0 -14.9801,-4.0914 10.980494,10.980494 0 0 0 -4.09139,14.9801 10.980494,10.980494 0 0 0 14.98009,4.09139 10.980494,10.980494 0 0 0 5.51193,-9.03343 l 43.14269,0.98526 a 17.590752,17.590752 0 0 0 2.27341,7.83841 17.590752,17.590752 0 0 0 3.71532,4.50904 l -23.93467,30.72304 a 10.980494,10.980494 0 0 0 -11.22623,-0.21384 10.980494,10.980494 0 0 0 -4.09139,14.980087 10.980494,10.980494 0 0 0 14.98008,4.0914 10.980494,10.980494 0 0 0 4.0914,-14.98009 10.980494,10.980494 0 0 0 -3.02646,-3.382087 l 23.87655,-30.64838 a 17.590752,17.590752 0 0 0 16.90756,2.7094 l 41.77974,90.412747 a 17.590752,17.590752 0 0 0 -0.71316,0.36171 17.590752,17.590752 0 0 0 -7.56628,21.866623 l -65.47888,30.09975 a 17.590752,17.590752 0 0 0 -0.66116,-1.30676 17.590752,17.590752 0 0 0 -23.99858,-6.5545302 17.590752,17.590752 0 0 0 -6.55454,23.9985802 17.590752,17.590752 0 0 0 2.2437,3.05947 l -30.24426,31.15157 a 17.590752,17.590752 0 0 0 -20.29854,-2.0585 17.590752,17.590752 0 0 0 -1.61252,1.06685 L 42.715046,-38.32544 a 17.590752,17.590752 0 0 0 6.42526,-20.771633 l 34.650571,-17.1914 a 10.980494,10.980494 0 0 0 14.941719,4.02933 10.980494,10.980494 0 0 0 4.091394,-14.98009 10.980494,10.980494 0 0 0 -14.980084,-4.09138 10.980494,10.980494 0 0 0 -4.455349,14.2613 l -34.565671,17.14983 a 17.590752,17.590752 0 0 0 -0.80894,-1.60367 17.590752,17.590752 0 0 0 -8.57483,-7.53407 l 15.31325,-44.100147 a 10.980494,10.980494 0 0 0 8.39849,-1.03638 10.980494,10.980494 0 0 0 4.091391,-14.98008 10.980494,10.980494 0 0 0 -14.980091,-4.0914 10.980494,10.980494 0 0 0 -4.09138,14.9801 10.980494,10.980494 0 0 0 5.74794,4.85101 l -15.30464,44.075477 a 17.590752,17.590752 0 0 0 -11.10505,-0.22476 l -15.89494,-45.530817 a 10.980494,10.980494 0 0 0 0.52402,-0.26565 10.980494,10.980494 0 0 0 4.0914,-14.98008 10.980494,10.980494 0 0 0 -14.9800897,-4.09139 10.980494,10.980494 0 0 0 -4.09138,14.98009 10.980494,10.980494 0 0 0 13.6527597,4.72177 l 15.86847,45.455057 a 17.590752,17.590752 0 0 0 -2.66273,1.21701 17.590752,17.590752 0 0 0 -6.32297,6.20111 l -42.983324,-24.94408 a 10.980494,10.980494 0 0 0 0.45677,-11.60693 10.980494,10.980494 0 0 0 -14.98008,-4.091377 10.980494,10.980494 0 0 0 -4.0914,14.980077 10.980494,10.980494 0 0 0 9.11463,5.51396 l -0.81251,30.21123 a 17.590752,17.590752 0 0 0 -9.1228,2.28858 17.590752,17.590752 0 0 0 -6.36789,6.27813 l -32.08032,-13.81497 a 10.980494,10.980494 0 0 0 -0.44047,-10.00016 10.980494,10.980494 0 0 0 -14.87208,-4.14613 l -19.518102,-34.988667 a 6.5882966,6.5882966 0 0 0 2.24526,-8.85852 6.5882966,6.5882966 0 0 0 -8.98806,-2.45482 6.5882966,6.5882966 0 0 0 -2.45483,8.98805 6.5882966,6.5882966 0 0 0 8.42328,2.74073 l 19.539802,35.026647 a 10.980494,10.980494 0 0 0 -3.446762,14.58142 10.980494,10.980494 0 0 0 14.980092,4.09139 10.980494,10.980494 0 0 0 4.13648,-4.1931 l 32.02757,13.79173 a 17.590752,17.590752 0 0 0 -1.37365,12.997723 l -39.29893,13.46005 a 10.980494,10.980494 0 0 0 -0.69852,-1.50373 10.980494,10.980494 0 0 0 -14.980092,-4.09139 10.980494,10.980494 0 0 0 -4.09139,14.9800898 10.980494,10.980494 0 0 0 14.980082,4.09139 10.980494,10.980494 0 0 0 5.074,-12.6447998 l 39.25863,-13.44594 a 17.590752,17.590752 0 0 0 1.39135,3.11346 17.590752,17.590752 0 0 0 6.71215,6.62288 l -22.56355,41.14905 a 10.980494,10.980494 0 0 0 -11.16306,-0.17582 10.980494,10.980494 0 0 0 -5.52202,9.9154 l -36.413852,3.35013 a 6.5882966,6.5882966 0 0 0 -0.83048,-2.6276 6.5882966,6.5882966 0 0 0 -8.98805,-2.45484 6.5882966,6.5882966 0 0 0 -2.45483,8.98806 6.5882966,6.5882966 0 0 0 8.98805,2.45483 6.5882966,6.5882966 0 0 0 3.30891,-5.47993 l 36.451232,-3.35368 a 10.980494,10.980494 0 0 0 1.36955,4.1878 10.980494,10.980494 0 0 0 1.7409,2.28266 l -37.733172,34.38317 a 6.5882966,6.5882966 0 0 0 -8.07181,-1.22555 6.5882966,6.5882966 0 0 0 -2.45484,8.98804 6.5882966,6.5882966 0 0 0 8.98806,2.45483 6.5882966,6.5882966 0 0 0 2.45483,-8.98805 6.5882966,6.5882966 0 0 0 -0.35889,-0.5488 l 37.826012,-34.46779 a 10.980494,10.980494 0 0 0 6.55065,2.63045 l -6.39601,43.07282 a 6.5882966,6.5882966 0 0 0 -3.63087,0.85009 6.5882966,6.5882966 0 0 0 -2.45483,8.98806 6.5882966,6.5882966 0 0 0 8.98805,2.45483 6.5882966,6.5882966 0 0 0 2.45484,-8.98805 6.5882966,6.5882966 0 0 0 -4.48428,-3.20172 l 6.40867,-43.15612 a 10.980494,10.980494 0 0 0 5.15267,-1.43742 10.980494,10.980494 0 0 0 1.3471,-0.91926 l 19.93103,31.58891 a 6.5882966,6.5882966 0 0 0 -2.18768,8.82267 6.5882966,6.5882966 0 0 0 8.98805,2.45484 6.5882966,6.5882966 0 0 0 2.45483,-8.98805 6.5882966,6.5882966 0 0 0 -8.48234,-2.71096 L -65.386298,39.6418 a 10.980494,10.980494 0 0 0 2.07202,-13.48041 10.980494,10.980494 0 0 0 -3.08411,-3.42425 l 22.60798,-41.22874 a 17.590752,17.590752 0 0 0 15.55328,0.003 l 12.154124,23.6061998 a 10.980494,10.980494 0 0 0 -3.71242,14.7459302 10.980494,10.980494 0 0 0 14.9800703,4.0914 10.980494,10.980494 0 0 0 4.09139001,-14.9800902 10.980494,10.980494 0 0 0 -14.59248031,-4.288 L -27.453308,-18.88574 a 17.590752,17.590752 0 0 0 0.17157,-0.0871 17.590752,17.590752 0 0 0 8.331314,-19.526643 l 34.63321,-10.06421 a 17.590752,17.590752 0 0 0 1.77859,4.48375 17.590752,17.590752 0 0 0 17.88809,8.655363 l 9.72046,49.36035 a 10.980494,10.980494 0 0 0 -1.58611,0.73074 10.980494,10.980494 0 0 0 -4.09121,14.98006 10.980494,10.980494 0 0 0 14.98009,4.09138 10.980494,10.980494 0 0 0 4.09139,-14.98009 10.980494,10.980494 0 0 0 -12.55287,-5.09984 l -9.69483,-49.23075 a 17.590752,17.590752 0 0 0 5.24377,-1.95271 17.590752,17.590752 0 0 0 0.51752,-0.32019 L 107.66383,62.86924 a 17.590752,17.590752 0 0 0 -4.23535,22.40477 17.590752,17.590752 0 0 0 5.69559,6.02579 l -47.809714,72.8451 a 17.590752,17.590752 0 0 0 -1.23248,-0.57555 17.590752,17.590752 0 0 0 -22.9933,9.4956 17.590752,17.590752 0 0 0 -1.34435,6.80314 l -40.9876697,2.06261 a 17.590752,17.590752 0 0 0 -5.8853403,-11.69228 17.590752,17.590752 0 0 0 -2.82733,-2.0091 L 0.52742631,141.75448 a 10.980494,10.980494 0 0 0 0.99393999,0.48652 10.980494,10.980494 0 0 0 14.3534297,-5.92692 10.980494,10.980494 0 0 0 -5.9269197,-14.35344 10.980494,10.980494 0 0 0 -14.35343,5.92693 10.980494,10.980494 0 0 0 4.17397001,13.42504 L -14.726334,167.80769 a 17.590752,17.590752 0 0 0 -20.152284,2.91072 l -27.45871,-27.10336 a 10.980494,10.980494 0 0 0 0.76021,-0.78273 10.980494,10.980494 0 0 0 -0.99044,-15.49654 10.980494,10.980494 0 0 0 -15.49727,0.99089 10.980494,10.980494 0 0 0 0.99048,15.49651 10.980494,10.980494 0 0 0 14.06181,0.36013 l 27.52126,27.16444 a 17.590752,17.590752 0 0 0 -0.46433,0.47749 17.590752,17.590752 0 0 0 -4.36129,10.85493 l -46.6569,-0.0329 a 10.980494,10.980494 0 0 0 -3.71392,-8.04821 10.980494,10.980494 0 0 0 -15.496522,0.99044 10.980494,10.980494 0 0 0 0.99014,15.4977 10.980494,10.980494 0 0 0 15.497242,-0.99087 10.980494,10.980494 0 0 0 2.70964,-6.57112 l 46.66956,0.0326 a 17.590752,17.590752 0 0 0 3.74931,10.75047 l -37.38764,30.30472 a 10.980494,10.980494 0 0 0 -1.30165,-1.3767 10.980494,10.980494 0 0 0 -15.49655,0.99047 10.980494,10.980494 0 0 0 0.99088,15.49727 10.980494,10.980494 0 0 0 15.49654,-0.99047 10.980494,10.980494 0 0 0 0.83093,-13.41195 l 37.43224,-30.34104 a 17.590752,17.590752 0 0 0 1.63564,1.67103 17.590752,17.590752 0 0 0 20.796534,1.80084 l 19.7191903,31.89952 a 10.980494,10.980494 0 0 0 -4.00044,4.88298 10.980494,10.980494 0 0 0 5.92691,14.35344 10.980494,10.980494 0 0 0 14.3530097,-5.92768 10.980494,10.980494 0 0 0 -3.25252,-12.75588 l 25.04601,-36.06059 a 17.590752,17.590752 0 0 0 2.36277,1.2144 17.590752,17.590752 0 0 0 10.12093,1.00986 l 7.0883,43.92662 a 10.980494,10.980494 0 0 0 -7.07487,6.32023 10.980494,10.980494 0 0 0 5.92696,14.35342 10.980494,10.980494 0 0 0 14.353,-5.92768 10.980494,10.980494 0 0 0 -5.927679,-14.353 10.980494,10.980494 0 0 0 -6.423121,-0.61301 l -7.0846,-43.90801 a 17.590752,17.590752 0 0 0 10.414691,-7.33409 l 30.116439,21.59713 a 10.980494,10.980494 0 0 0 -1.69432,2.78693 10.980494,10.980494 0 0 0 5.927674,14.353 10.980494,10.980494 0 0 0 14.35301,-5.92767 10.980494,10.980494 0 0 0 -5.92725,-14.35226 10.980494,10.980494 0 0 0 -12.073544,2.4787 l -30.236439,-21.6827 a 17.590752,17.590752 0 0 0 1.13455,-2.22235 17.590752,17.590752 0 0 0 0.98416,-10.28011 l 35.377093,-8.02431 a 10.980494,10.980494 0 0 0 6.47712,7.66982 10.980494,10.980494 0 0 0 14.35225,-5.92724 10.980494,10.980494 0 0 0 -5.92692,-14.35344 10.980494,10.980494 0 0 0 -14.35301,5.92766 10.980494,10.980494 0 0 0 -0.70896,5.81906 l -35.432823,8.03735 A 17.590752,17.590752 0 0 0 62.080996,164.57744 L 109.8822,91.74508 a 17.590752,17.590752 0 0 0 17.5442,0.0838 17.590752,17.590752 0 0 0 6.13748,-5.88578 l 89.81644,57.86469 a 17.590752,17.590752 0 0 0 -3.03337,11.99734 l -38.66556,4.25939 a 10.980494,10.980494 0 0 0 -1.20055,-3.20658 10.980494,10.980494 0 0 0 -14.98008,-4.0914 10.980494,10.980494 0 0 0 -4.09139,14.98009 10.980494,10.980494 0 0 0 14.98009,4.09139 10.980494,10.980494 0 0 0 5.44048,-10.90605 l 38.62777,-4.2546 a 17.590752,17.590752 0 0 0 2.0724,5.8807 17.590752,17.590752 0 0 0 6.15802,6.31497 l -21.66412,37.27097 a 10.980494,10.980494 0 0 0 -10.56249,0.16489 10.980494,10.980494 0 0 0 -4.09139,14.98008 10.980494,10.980494 0 0 0 14.98006,4.09136 10.980494,10.980494 0 0 0 4.09141,-14.98006 10.980494,10.980494 0 0 0 -3.65504,-3.82037 l 21.67217,-37.28448 a 17.590752,17.590752 0 0 0 12.40382,1.64655 l 13.52988,41.83136 a 10.980494,10.980494 0 0 0 -0.96426,0.47736 10.980494,10.980494 0 0 0 -4.09138,14.98008 10.980494,10.980494 0 0 0 14.98009,4.0914 10.980494,10.980494 0 0 0 4.09138,-14.98009 10.980494,10.980494 0 0 0 -13.20017,-4.90314 L 242.71002,170.71 a 17.590752,17.590752 0 0 0 3.81865,-1.59742 17.590752,17.590752 0 0 0 6.61413,-6.70321 l 39.72485,19.95487 a 10.980494,10.980494 0 0 0 0.40795,10.08684 10.980494,10.980494 0 0 0 14.98009,4.09138 10.980494,10.980494 0 0 0 4.09138,-14.98008 10.980494,10.980494 0 0 0 -14.98008,-4.09139 10.980494,10.980494 0 0 0 -4.09124,4.11494 l -39.71056,-19.9472 a 17.590752,17.590752 0 0 0 1.09554,-12.76682 l 35.56517,-10.32466 a 10.980494,10.980494 0 0 0 0.90337,2.08222 10.980494,10.980494 0 0 0 14.98007,4.09135 10.980494,10.980494 0 0 0 5.52169,-9.26717 l 33.96506,1.22973 a 6.5882966,6.5882966 0 0 0 4.41417,6.60327 6.5882966,6.5882966 0 0 0 2.71412,0.33322 l 7.8684,30.50521 a 6.5882966,6.5882966 0 0 0 -3.68002,3.90778 6.5882966,6.5882966 0 0 0 4.06217,8.38482 6.5882966,6.5882966 0 0 0 8.38482,-4.06218 6.5882966,6.5882966 0 0 0 -4.06218,-8.38481 6.5882966,6.5882966 0 0 0 -3.87111,-0.13294 l -7.82782,-30.34759 a 6.5882966,6.5882966 0 0 0 4.19713,-3.00383 l 22.84305,11.39771 a 6.5882966,6.5882966 0 0 0 -0.36367,0.83191 6.5882966,6.5882966 0 0 0 4.0626,8.38557 6.5882966,6.5882966 0 0 0 8.38479,-4.0622 6.5882966,6.5882966 0 0 0 -4.06258,-8.38554 6.5882966,6.5882966 0 0 0 -7.56993,2.47376 l -22.89005,-11.4212 a 6.5882966,6.5882966 0 0 0 0.19507,-0.48184 6.5882966,6.5882966 0 0 0 -0.19961,-4.81524 l 25.68141,-10.23223 a 6.5882966,6.5882966 0 0 0 3.77693,3.37642 6.5882966,6.5882966 0 0 0 8.38481,-4.06217 6.5882966,6.5882966 0 0 0 -4.06217,-8.3848 6.5882966,6.5882966 0 0 0 -8.38481,4.06217 6.5882966,6.5882966 0 0 0 -0.038,4.19129 L 357.788,133.62642 a 6.5882966,6.5882966 0 0 0 -3.4551,-2.7867 6.5882966,6.5882966 0 0 0 -0.12509,-0.0392 l 11.32744,-29.33141 a 6.5882966,6.5882966 0 0 0 8.16627,-4.13003 6.5882966,6.5882966 0 0 0 -4.06217,-8.3848 6.5882966,6.5882966 0 0 0 -8.38478,4.06214 6.5882966,6.5882966 0 0 0 3.45966,8.14105 l -11.36436,29.42759 a 6.5882966,6.5882966 0 0 0 -7.40173,4.3168 6.5882966,6.5882966 0 0 0 -0.23774,0.90723 l -34.08564,-1.23497 a 10.980494,10.980494 0 0 0 -1.42399,-4.83336 10.980494,10.980494 0 0 0 -14.9801,-4.09141 10.980494,10.980494 0 0 0 -5.23575,12.05358 l -35.58221,10.32945 a 17.590752,17.590752 0 0 0 -1.32025,-2.91796 17.590752,17.590752 0 0 0 -7.62779,-7.11756 l 15.69886,-32.71335 a 10.980494,10.980494 0 0 0 9.72217,-0.56227 10.980494,10.980494 0 0 0 4.09138,-14.98009 10.980494,10.980494 0 0 0 -14.98008,-4.09138 10.980494,10.980494 0 0 0 -4.09138,14.98008 10.980494,10.980494 0 0 0 4.46162,4.28149 l -15.71229,32.74178 a 17.590752,17.590752 0 0 0 -15.55988,0.90711 17.590752,17.590752 0 0 0 -5.19916,4.52918 l -89.87669,-57.9044 a 17.590752,17.590752 0 0 0 -0.0283,-17.35472 17.590752,17.590752 0 0 0 -3.04511,-3.90782 l 30.18354,-31.08826 a 17.590752,17.590752 0 0 0 21.1611,2.84428 17.590752,17.590752 0 0 0 7.56001,-21.88281 L 255.318,-16.30297 a 17.590752,17.590752 0 0 0 0.66967,1.32166 17.590752,17.590752 0 0 0 23.14931,6.9840898 L 291.59164,11.25987 a 10.980494,10.980494 0 0 0 -3.006,14.25471 10.980494,10.980494 0 0 0 14.98009,4.09139 10.980494,10.980494 0 0 0 4.09138,-14.98009 10.980494,10.980494 0 0 0 -14.98008,-4.09139 10.980494,10.980494 0 0 0 -0.36337,0.22521 L 279.92449,-8.3964902 a 17.590752,17.590752 0 0 0 0.0605,-0.0308 17.590752,17.590752 0 0 0 8.77756,-13.5926998 l 21.71241,-0.53967 a 10.980494,10.980494 0 0 0 1.145,2.92418 10.980494,10.980494 0 0 0 14.9801,4.09139 10.980494,10.980494 0 0 0 4.09138,-14.98008 10.980494,10.980494 0 0 0 -0.13604,-0.21869 l 27.87631,-17.197973 a 6.5882966,6.5882966 0 0 0 8.65657,1.94174 6.5882966,6.5882966 0 0 0 3.02204,-7.67111 l 28.36191,-11.04447 a 6.5882966,6.5882966 0 0 0 0.29237,0.57593 6.5882966,6.5882966 0 0 0 8.98806,2.45483 6.5882966,6.5882966 0 0 0 2.45483,-8.98805 6.5882966,6.5882966 0 0 0 -8.98806,-2.45484 6.5882966,6.5882966 0 0 0 -3.0456,7.5848 l -28.3796,11.05159 a 6.5882966,6.5882966 0 0 0 -0.25118,-0.4967 6.5882966,6.5882966 0 0 0 -6.04006,-3.30721 l 1.99369,-51.549877 a 6.5882966,6.5882966 0 0 0 3.19019,-0.86421 6.5882966,6.5882966 0 0 0 2.45483,-8.98805 6.5882966,6.5882966 0 0 0 -8.98805,-2.45483 6.5882966,6.5882966 0 0 0 -2.45485,8.98805 6.5882966,6.5882966 0 0 0 4.92155,3.2652 l -2.00076,51.707037 a 6.5882966,6.5882966 0 0 0 -2.06459,0.74906 6.5882966,6.5882966 0 0 0 -2.57649,8.74734 l -27.91197,17.220263 a 10.980494,10.980494 0 0 0 -14.35553,-3.14108 10.980494,10.980494 0 0 0 -5.39948,11.18197 l -21.49628,0.53423 a 17.590752,17.590752 0 0 0 -2.27545,-9.52543 17.590752,17.590752 0 0 0 -5.9275,-6.162073 l 10.68013,-19.96479 a 10.980494,10.980494 0 0 0 10.27264,-0.3145 10.980494,10.980494 0 0 0 4.09139,-14.98009 10.980494,10.980494 0 0 0 -14.98008,-4.09139 10.980494,10.980494 0 0 0 -4.0914,14.98009 10.980494,10.980494 0 0 0 3.93621,3.98583 l -10.66695,19.93949 a 17.590752,17.590752 0 0 0 -15.8153,-0.70637 l -41.74308,-90.332937 a 17.590752,17.590752 0 0 0 1.88519,-0.9163 17.590752,17.590752 0 0 0 8.61864,-12.39165 l 36.26449,2.2709 a 10.980494,10.980494 0 0 0 1.40924,6.31267 10.980494,10.980494 0 0 0 14.98009,4.0914 10.980494,10.980494 0 0 0 4.0914,-14.9801 10.980494,10.980494 0 0 0 -14.9801,-4.09138 10.980494,10.980494 0 0 0 -5.38783,7.79399 l -36.26261,-2.27097 a 17.590752,17.590752 0 0 0 -2.17954,-10.73299 17.590752,17.590752 0 0 0 -2.31209,-3.13601 l 26.84688,-25.51344 a 10.980494,10.980494 0 0 0 13.64818,2.25683 10.980494,10.980494 0 0 0 4.09139,-14.98009 10.980494,10.980494 0 0 0 -14.9801,-4.0914 10.980494,10.980494 0 0 0 -4.09138,14.98009 10.980494,10.980494 0 0 0 0.77438,1.15223 l -26.88291,25.54884 a 17.590752,17.590752 0 0 0 -11.63026,-5.04972 l 2.98991,-44.33758 a 10.980494,10.980494 0 0 0 6.19298,-1.41301 10.980494,10.980494 0 0 0 4.0914,-14.98008 10.980494,10.980494 0 0 0 -1.62228,-2.15283 l 26.89474,-25.8707 a 6.5882966,6.5882966 0 0 0 7.73764,0.8928 6.5882966,6.5882966 0 0 0 2.3744,-2.33458 l 28.02296,14.1015 a 6.5882966,6.5882966 0 0 0 0.31643,5.88655 6.5882966,6.5882966 0 0 0 8.98805,2.45483 6.5882966,6.5882966 0 0 0 2.45483,-8.98804 6.5882966,6.5882966 0 0 0 -8.98806,-2.45484 6.5882966,6.5882966 0 0 0 -2.36824,2.32118 l -28.02296,-14.10149 a 6.5882966,6.5882966 0 0 0 0.0903,-4.98572 l 23.67442,-9.51898 a 6.5882966,6.5882966 0 0 0 0.46609,1.02398 6.5882966,6.5882966 0 0 0 8.98805,2.45484 6.5882966,6.5882966 0 0 0 2.45483,-8.98805 z M 17.248576,-61.119353 a 17.590752,17.590752 0 0 0 -1.7563,11.69594 l -34.67592,10.07772 a 17.590752,17.590752 0 0 0 -1.54287,-3.62458 17.590752,17.590752 0 0 0 -13.998604,-8.81543 l 0.81305,-30.23621 a 10.980494,10.980494 0 0 0 4.98775,-1.42526 10.980494,10.980494 0 0 0 3.11415,-2.66012 l 43.058744,24.98794 z M 35.788416,180.7447 a 17.590752,17.590752 0 0 0 7.69508,13.62151 l -25.01789,36.01982 a 10.980494,10.980494 0 0 0 -1.96565,-1.07761 10.980494,10.980494 0 0 0 -9.6055297,0.57965 L -12.844224,197.95622 a 17.590752,17.590752 0 0 0 3.3030603,-2.89148 17.590752,17.590752 0 0 0 4.36192,-12.25701 l 40.9676497,-2.06302 z"
       id="circle7374" />
  </g>
</svg>
